<?xml version="1.0" encoding="UTF-8" standalone="no"?>
<!-- convert using Magelan(SourceForge.org) on lun. mars 21 05:44:13 2011 
from the PCPG libraries written  in basic, in 1980 by Eugene Ying -->

<svg
   xmlns:dc="http://purl.org/dc/elements/1.1/"
   xmlns:cc="http://creativecommons.org/ns#"
   xmlns:rdf="http://www.w3.org/1999/02/22-rdf-syntax-ns#"
   xmlns:svg="http://www.w3.org/2000/svg"
   xmlns="http://www.w3.org/2000/svg"
   xmlns:xlink="http://www.w3.org/1999/xlink"
   xmlns:sodipodi="http://sodipodi.sourceforge.net/DTD/sodipodi-0.dtd"
   xmlns:inkscape="http://www.inkscape.org/namespaces/inkscape"
   id="foo"
   sodipodi:docname="tome_comb_logo.svg"
   viewBox="0 0 263.45684 150.60515"
   version="1.1"
   inkscape:version="0.92.4 (5da689c313, 2019-01-14)"
   width="263.45685"
   height="150.60515">
  <sodipodi:namedview
     id="namedview97"
     bordercolor="#666666"
     inkscape:pageshadow="2"
     guidetolerance="10"
     pagecolor="#ffffff"
     gridtolerance="10"
     inkscape:window-maximized="1"
     inkscape:zoom="2.5371827"
     objecttolerance="10"
     borderopacity="1"
     inkscape:current-layer="foo"
     inkscape:cx="193.2113"
     inkscape:cy="81.47023"
     inkscape:window-y="-8"
     inkscape:window-x="1272"
     inkscape:window-width="1920"
     showgrid="false"
     inkscape:pageopacity="0"
     inkscape:window-height="1017"
     fit-margin-top="0"
     fit-margin-left="0"
     fit-margin-right="0"
     fit-margin-bottom="0" />
  <defs
     id="defs3">
    <symbol
       id="candel">
      <path
         id="path6"
         inkscape:connector-curvature="0"
         d="m 0,24 v 36 l 2,2 v 32 l 2,2 4,2 h 8 l 4,-2 2,-2 V 70 l 2,-2 -2,-14 h 2 V 42 l 2,-2 -2,-2 V 26 l -2,-2 v -2 h -2 l -2,-2 h -4 l -2,2 m -2,0 -4,2 -2,-2 -4,2 6,6 h 6 l 4,-4 h 8 M 12,26 V 10 L 14,8 V 4 L 10,0 8,4 v 4 l 2,2 h 2 m -2,0 v 16 m 6,6 2,4 v 4 l 2,4 -2,4 2,4 -2,4 2,4 -2,4 v 4 l -2,4 2,4 -4,4 2,-4 -2,-4 2,-4 -2,-4 2,-4 -2,-4 2,-4 -2,-4 2,-4 -2,-4 v -4 l -4,-4" />
    </symbol>
    <symbol
       id="book">
      <path
         id="path9"
         inkscape:connector-curvature="0"
         d="m 0,5 v 37 h 36 l 1,-1 2,-1 2,1 1,1 H 78 V 5 L 74,1 70,3 H 63 L 60,2 53,1 H 49 L 44,2 39,5 34,2 29,1 H 25 L 18,2 15,3 H 8 L 4,1 0,5 M 4,1 v 37 l 1,1 2,1 h 3 l 5,-1 6,-1 7,-2 h 3 l 4,1 4,2 4,-2 4,-1 h 3 l 7,2 6,1 5,1 h 3 l 2,-1 1,-1 V 1 m 1,2 v 37 m 1,1 V 4 m 1,1 V 42 M 1,42 V 5 M 2,4 V 41 M 3,40 V 3 m 36,2 v 34" />
    </symbol>
    <symbol
       id="lock">
      <path
         id="path12"
         inkscape:connector-curvature="0"
         d="M 80,40 V 86 L 70,96 H 2 V 50 L 12,40 h 2 M 2,50 H 70 L 80,40 H 68 M 56,40 H 26 m 0,4 -2,2 H 16 L 14,44 V 18 l 2,-4 4,-4 4,-2 h 34 l 4,2 4,4 2,4 v 26 l -2,2 H 58 L 56,44 V 22 L 54,20 H 28 l -2,2 v 22 m 44,6 v 46" />
    </symbol>
    <symbol
       id="modem">
      <path
         id="path15"
         inkscape:connector-curvature="0"
         d="M 0,19 V 33 H 79 V 19 H 0 L 6,8 h 6 v 5 l -1,-2 v -1 l 1,-1 m 0,1 4,1 h 5 l 4,-1 m 0,-1 1,1 v 1 l -1,2 -4,1 h -5 l -4,-1 m 13,0 V 8 l 10,1 h 9 L 54,8 v 5 l -1,-2 v -1 l 1,-1 m 0,4 4,1 h 5 l 4,-1 V 8 m 0,1 1,1 v 1 l -1,2 M 65,7 62,5 52,4 45,3 H 34 L 27,4 17,5 14,7 M 12,8 14,5 17,2 V 5 M 17,2 24,1 34,0 h 11 l 10,1 7,1 v 3 m 0,-3 3,3 2,3 h 6 l 6,11 M 67,10 63,11 H 58 L 54,10 M 56,7 H 23" />
    </symbol>
    <symbol
       id="module">
      <path
         id="path18"
         inkscape:connector-curvature="0"
         d="M 0,12 59,29 77,17 18,0 0,12 v 10 l 3,1 1,3 v 8 H 5 V 26 L 7,24 V 20 L 3,19 v 4 m -3,-4 3,1 m 4,4 3,1 1,3 v 8 h 1 v -8 l 2,-2 v -4 l -4,-1 v 4 m -3,-4 3,1 m 4,4 3,1 1,3 v 8 h 1 v -8 l 2,-2 v -4 l -4,-1 v 4 m -3,-4 3,1 m 4,4 3,1 1,3 v 8 h 1 v -8 l 2,-2 v -4 l -4,-1 v 4 m -3,-4 3,1 m 4,4 3,1 1,3 v 8 h 1 v -8 l 2,-2 v -4 l -4,-1 v 4 m -3,-4 3,1 m 4,4 3,1 1,3 v 8 h 1 v -8 l 2,-2 v -4 l -4,-1 v 4 m -3,-4 3,1 m 4,4 3,1 1,3 v 8 h 1 v -8 l 2,-2 v -4 l -4,-1 v 4 m -3,-4 3,1 m 4,4 3,1 1,3 v 8 h 1 v -8 l 2,-2 v -4 l -4,-1 v 4 m -3,-4 3,1 m 4,4 3,1 18,-12 V 17 M 59,29 v 10 m 0,-3 -3,-1 m 17,-5 v 4 h 1 v -5" />
    </symbol>
    <symbol
       id="plunger">
      <path
         id="path21"
         inkscape:connector-curvature="0"
         d="m 20,0 h 2 l 2,2 v 76 l 2,2 2,6 2,2 6,2 4,4 v 2 l 2,2 H 0 L 2,96 H 40 M 2,96 v -2 l 4,-4 6,-2 2,-2 2,-6 2,-2 h 6 m -6,0 V 2 l 2,-2" />
    </symbol>
    <symbol
       id="747">
      <path
         id="path24"
         inkscape:connector-curvature="0"
         d="M 0,11 1,10 4,9 H 8 V 8 H 5 M 5,9 6,8 M 7,8 V 9 M 4,9 6,7 H 16 L 26,8 60,9 63,8 65,7 75,0 h 4 L 75,9 M 60,9 h 19 l -4,2 h -9 v -1 l 9,-1 m 2,1 v 1 l -4,1 -21,3 h -7 v -1 l -2,-1 h -2 v 1 h 2 V 13 L 55,11 H 23 l -4,2 v 1 h 7 l -3,-1 v -1 l 3,-1 m 0,3 v -1 l 2,-1 h 1 l 2,1 v 1 h 2 v -1 h -2 m 0,1 -2,1 h -1 l -2,-1 m 5,0 7,1 h 7 m -4,-1 -2,1 h -1 l -2,-1 v -1 l 2,-1 h 1 l 2,1 m -5,0 -3,1 m 0,-3 v -1 h -1 v 1 h 1 m -3,0 v -1 h -1 v 1 h 1 m -3,0 v -1 h -1 v 1 h 1 m -2,0 v -1 h -1 v 1 h 1 m -2,0 v -1 h -1 v 1 h 1 m -2,0 v -1 h -1 v 1 h 1 m -2,0 v -1 h -1 v 1 h 1 m -2,0 v -1 h -1 v 1 h 1 m -2,0 v -1 h -1 v 1 h 1 m -3,0 v -1 h -1 v 1 h 1 M 9,11 V 10 H 8 v 1 H 9 M 7,11 V 10 H 6 v 1 H 7 M 5,11 V 10 H 4 v 1 H 5 M 3,11 V 10 H 2 v 1 h 1 m -3,0 1,1 3,1 8,1 h 7" />
    </symbol>
    <symbol
       id="hammer">
      <path
         id="path27"
         inkscape:connector-curvature="0"
         d="M 0,10 1,8 3,6 8,2 13,0 14,1 11,2 7,4 10,3 15,2 16,3 11,4 8,5 5,7 2,11 0,10 v 7 m 2,0 v -6 m 6,0 1,-3 3,-3 4,-2 m -8,8 h 5 l 10,1 h 52 l 2,-2 -1,-1 -3,1 H 23 L 12,9 H 8 m 4,0 1,2 v 6 l -5,1 -1,2 v 6 L 5,27 H 3 L 1,26 v -1 l 2,1 H 5 L 7,25 M 1,25 V 22 L 0,17 m 13,0 10,-1 h 50 l 3,1 2,-2 1,-2 -1,-2 -1,-1" />
    </symbol>
    <symbol
       id="mailbox">
      <path
         id="path30"
         inkscape:connector-curvature="0"
         d="m 0,27 12,-6 44,10 v 2 L 12,23 v -2 m 0,2 -12,6 v -2 m 0,2 16,4 12,-6 v 4 h 2 v -4 m 0,4 -12,6 h -2 l 12,-6 m -12,2 v 4 m 19,0 9,2 12,-6 m -17,0 v -4 m -2,0 v 4 h 2 l -4,2 m 0,-1 2,-1 m 0,-4 -2,1 v 19 m -6,0 V 32 m -6,3 v 14 m 7,-20 5,1 m 19,0 V 17 L 52,15 48,13 32,8 m -2,0 -6,-2 1,1 1,3 v 14 m -1,0 V 10 L 24,7 22,5 24,6 M 22,5 h -4 l -2,1 h 1 V 7 L 16,8 H 15 V 7 L 12,6 V 5 l 4,1 m -2,1 -1,1 -1,6 v 8 m 27,-2 v -3 h 1 v 2 l -1,1 h 2 V 19 L 40,18 M 32,16 V 7 l 4,1 V 4 L 30,1 v 15" />
    </symbol>
    <symbol
       id="crt">
      <path
         id="path33"
         inkscape:connector-curvature="0"
         d="m 8,0 h 41 l 2,7 v 16 l -2,7 H 8 L 6,23 V 7 L 8,0 m 6,6 1,-1 5,-1 h 17 l 5,1 1,1 1,4 v 10 l -1,4 -1,1 -5,1 H 20 L 15,25 14,24 13,20 V 10 L 14,6 M 11,17 H 9 v 7 h 2 v -7 m 38,0 v -5 h -3 v 5 h 3 m 0,4 -1,-1 h -1 l -1,1 v 1 l 1,1 h 1 l 1,-1 v -1 m -2,9 v 4 m 6,0 4,10 v 2 H 0 V 44 L 4,34 h 49 m -1,2 2,6 h -9 l -2,-6 h 9 m -11,0 2,6 H 11 l 2,-6 H 41 M 10,36 H 5 l -2,6 h 5 l 2,-6 m 0,-2 v -4" />
    </symbol>
    <symbol
       id="earth_sta">
      <path
         id="path36"
         inkscape:connector-curvature="0"
         d="M 0,21 15,17 22,37 7,41 0,21 m 1,0 7,20 M 9,40 2,20 m 1,0 7,20 M 4,34 19,30 21,27 18,24 3,28 m 10,-10 7,20 m -1,0 -7,-20 m 2,-1 7,20 m 7,0 3,3 7,-10 2,2 2,8 H 31 m -3,-3 9,-9 2,-3 8,-3 h 15 l -7,-1 h -8 l -10,4 -7,6 -2,6 m 2,-6 9,-6 m 12,0 -1,-2 -3,-1 m 15,0 2,2 -14,-1 m 1,2 12,3 -6,6 -6,-6 v -3 m 0,3 -3,1 M 46,26 43,27 56,48 46,26 m -6,6 5,-2 m -3,10 7,-3 m 2,0 1,-1 h -5 m 4,0 6,-2 m -7,4 -1,1 h 4 l -1,1 m 1,1 h -2 m 1,1 h 1 m 1,1 h -1 m 0,-22 -4,-7 h -7 l -10,4 -4,4 4,7 4,-4 10,-4 h 7 l -2,-4 h -7 l -10,4 -4,4 m 6,0 -4,-7 m 14,3 -4,-7 m 5,-1 v -1 l -2,-1 -5,1 -3,1 -4,2 -3,2 -2,2 v 1 l 1,1 m 9,9 -1,-2 m 26,0 1,-4 15,-4 -7,-20 -15,4 7,20 m 1,0 -7,-20 m 1,-1 7,20 m 1,0 -7,-20 m 9,-2 7,20 M 77,20 70,0 m 1,0 7,20 M 77,14 62,18 59,15 V 11 L 74,7 m -16,8 -7,2 m -20,5 -11,4" />
    </symbol>
    <symbol
       id="bell">
      <path
         id="path39"
         inkscape:connector-curvature="0"
         d="m 40,0 h 8 l 4,4 v 8 h 4 l 8,4 4,4 v 20 l 4,16 4,8 8,8 4,8 H 40 l -4,4 4,4 h 8 l 4,-4 -4,-4 m -8,0 H 0 l 4,-8 8,-8 8,-24 V 20 l 4,-4 8,-4 H 52 M 40,0 36,4 v 8" />
    </symbol>
    <symbol
       id="glass">
      <path
         id="path42"
         inkscape:connector-curvature="0"
         d="m 6,0 h 60 l 6,18 v 10 l -4,6 -12,12 -4,2 -6,2 h -8 v 42 l 24,2 2,2 H 6 L 8,94 32,92 V 50 H 26 L 20,48 16,46 4,34 0,28 V 18 L 6,0" />
    </symbol>
    <symbol
       id="lady_shoe">
      <path
         id="path45"
         inkscape:connector-curvature="0"
         d="M 5,0 4,1 3,3 1,7 0,11 v 4 l 1,3 3,6 2,4 1,4 v 4 l 2,1 V 24 m -8,-6 2,2 6,4 4,3 -1,4 v 5 l -3,1 m 4,-10 4,3 4,6 1,2 2,3 4,4 3,1 5,1 7,1 14,1 h 6 l 6,-1 1,-1 v -1 l -1,-2 -2,-3 -6,-3 -9,-5 -1,1 -5,1 H 40 L 36,34 32,32 29,30 20,21 14,14 6,4 5,1 V 0 l 3,1 4,2 5,3 5,4 7,5 23,18" />
    </symbol>
    <symbol
       id="comb">
      <path
         id="path48"
         inkscape:connector-curvature="0"
         d="m 0,8 v 3 l 1,4 1,2 V 8 h 1 l 1,9 1,-9 h 1 l 1,9 1,-9 h 1 l 1,9 1,-9 h 1 l 1,9 1,-9 h 1 l 1,9 1,-9 h 1 l 1,9 1,-9 h 1 l 1,9 1,-9 h 1 l 1,9 1,-9 h 1 l 1,9 1,-9 h 1 l 1,9 1,-9 h 1 l 1,9 1,-9 h 1 l 1,9 1,-9 h 1 l 1,9 1,-9 h 1 l 1,9 1,-9 h 1 l 1,9 1,-9 h 1 l 1,9 1,-9 h 1 l 1,9 1,-9 h 1 l 1,9 1,-9 h 1 l 1,9 1,-9 h 1 l 1,9 1,-9 h 1 l 1,9 1,-9 h 1 l 1,9 1,-9 h 1 v 9 l 1,-2 1,-4 V 8 L 70,6 66,3 62,2 56,1 45,0 H 26 L 15,1 9,2 5,3 1,6 0,8" />
    </symbol>
    <symbol
       id="screw driv">
      <path
         id="path51"
         inkscape:connector-curvature="0"
         d="m 2,0 h 20 l 3,2 h 2 l 2,-1 2,1 8,1 m 0,1 h 30 l 4,-1 6,1 V 6 L 73,7 69,6 H 39 m 0,1 V 3 m -1,0 v 4 m 1,0 -8,1 V 2 m 0,6 -2,1 -2,-1 h -2 l -3,2 H 2 L 0,8 V 2 L 2,0 m 1,1 h 17 l 1,1 V 3 L 20,4 H 3 L 2,3 V 2 L 3,1 m 0,5 h 17 l 1,1 V 8 L 20,9 H 3 L 2,8 V 7 L 3,6" />
    </symbol>
    <symbol
       id="auto">
      <path
         id="path54"
         inkscape:connector-curvature="0"
         d="m 1,1 1,-2 m 21,0 h 24 l 8,6 21,2 2,1 v 3 m 0,-1 h -6 v 1 h 7 l 1,1 v 1 h -2 l -1,1 v 1 h -4 v -1 h 4 m -4,0 v -1 h 1 v -2 m -5,0 1,1 1,2 v 2 l -1,2 -1,1 -2,1 h -2 l -2,-1 -1,-1 -1,-2 v -2 l 1,-2 1,-1 2,-1 h 2 l 2,1 m -5,5 v -2 l 1,-1 h 2 l 1,1 v 2 l -1,1 h -2 l -1,-1 m -5,0 H 28 v -2 h 31 v 2 m -33,0 v -2 l -1,-2 -1,-1 -2,-1 h -2 l -2,1 -1,1 -1,2 v 2 l 1,2 1,1 2,1 h 2 l 2,-1 1,-1 1,-2 m -3,0 v -2 l -1,-1 h -2 l -1,1 v 2 l 1,1 h 2 l 1,-1 M 8,11 v 1 h 6 v 2 H 7 L 6,13 H 3 L 2,12 3,11 H 15 V 10 H 5 M 5,11 4,9 5,6 h 52 l 19,1 m 0,1 h -3 v 1 h 3 V 8 M 42,8 V 7 h -2 v 1 h 2 M 25,8 H 23 V 7 h 2 V 8 M 10,8 H 7 v 1 h 3 V 8 M 21,8 20,6 V 4 l 5,-4 h 12 l 1,5 H 20 m 7,0 V 0 m 11,0 h 8 l 7,5 H 39 L 38,0 M 23,-1 15,4 5,5 V 6 M 39,5 v 9 M 27,11 H 60 V 10 H 27 v 1" />
    </symbol>
    <symbol
       id="clamp">
      <path
         id="path57"
         inkscape:connector-curvature="0"
         d="M 4,0 V 8 M 0,8 h 31 m -1,0 1,-1 1,1 v 2 l -3,4 -2,4 -1,5 v 5 l 1,2 3,2 4,1 8,1 h 17 l 8,-2 6,-2 2,-1 2,-2 2,-3 V 20 L 78,14 77,10 76,7 h -5 l -2,13 3,3 2,-16 m -32,0 1,1 v 2 l -1,1 H 41 V 7 h 1 m -11,0 -1,3 -3,4 -2,4 -1,5 2,5 M 6,8 V 0 H 4 m 0,10 v 8 H 6 V 10 M 0,8 v 2 h 31 m 5,0 h 5 M 41,8 H 36 L 35,7 h -4 m 5,1 v 2 L 34,23 H 72 M 69,20 H 35" />
    </symbol>
  </defs>
  <use
     id="use61"
     style="fill:none;fill-opacity:1;stroke:#000000;stroke-width:0.40000001"
     xlink:href="#book"
     transform="matrix(2.858,0,0,3.634,-201.90913,-25.574813)"
     height="1052.3622"
     width="744.09448"
     y="6.2810001"
     x="70.847" />
  <use
     id="use89"
     style="fill:none;stroke:#000000;stroke-width:0.5"
     xlink:href="#screw driv"
     transform="matrix(1.5063,0,0,2.4,-316.20913,-201.36034)"
     height="1052.3622"
     width="744.09448"
     y="28.75"
     x="1.9910001" />
  <metadata
     id="metadata95">
    <rdf:RDF>
      <cc:Work>
        <dc:format>image/svg+xml</dc:format>
        <dc:type
           rdf:resource="http://purl.org/dc/dcmitype/StillImage" />
        <cc:license
           rdf:resource="http://creativecommons.org/publicdomain/zero/1.0/" />
        <dc:publisher>
          <cc:Agent
             rdf:about="http://openclipart.org/">
            <dc:title>Openclipart</dc:title>
          </cc:Agent>
        </dc:publisher>
        <dc:title></dc:title>
      </cc:Work>
      <cc:License
         rdf:about="http://creativecommons.org/publicdomain/zero/1.0/">
        <cc:permits
           rdf:resource="http://creativecommons.org/ns#Reproduction" />
        <cc:permits
           rdf:resource="http://creativecommons.org/ns#Distribution" />
        <cc:permits
           rdf:resource="http://creativecommons.org/ns#DerivativeWorks" />
      </cc:License>
    </rdf:RDF>
  </metadata>
  <path
     style="fill:#ff9800;fill-opacity:0;stroke:none;stroke-width:0.39413795"
     d="m 20.019967,140.69837 c -0.52419,-0.22317 -2.13551,-1.28235 -3.58071,-2.35373 l -2.62765,-1.94796 -0.2619,-36.37015 c -0.33054,-45.902633 -0.33103,-66.893343 -0.002,-83.385263 l 0.26041,-13.0508497 0.82347,0.42993 c 0.4529,0.23647 2.37444,1.46899 4.27007,2.73893 l 3.44661,2.309 9.95408,-0.008 c 10.44386,-0.009 12.3994,-0.2329 17.04857,-1.95535 4.73947,-1.75591 18.48165,-4.356 26.22844,-4.96255 6.05304,-0.47394 15.73494,1.41122 21.46225,4.1789 1.73421,0.83804 5.398563,3.20424 8.143023,5.2582097 2.74445,2.05398 5.0945,3.62992 5.22232,3.5021 0.12783,-0.12782 0.23241,27.11092 0.23241,60.53053 0,33.419613 -0.0917,60.762943 -0.20386,60.762943 -0.11212,0 -2.09137,-1.18489 -4.39833,-2.63309 -4.35363,-2.73299 -8.103633,-4.46854 -9.914833,-4.58871 -0.57828,-0.0384 -1.1401,-0.18502 -1.24849,-0.3259 -0.10839,-0.14089 -0.81784,-0.36282 -1.57655,-0.49319 -0.75872,-0.13037 -2.08893,-0.40993 -2.95604,-0.62126 -3.49086,-0.85076 -13.59776,-0.18756 -13.59776,0.89227 0,0.18028 -0.15521,0.23185 -0.34492,0.1146 -0.47997,-0.29664 -3.99059,0.94323 -3.99059,1.40938 0,0.20919 -0.14398,0.29137 -0.31994,0.18261 -0.17597,-0.10875 -2.70338,0.56927 -5.61647,1.50671 -2.91309,0.93744 -7.95696,2.38009 -11.20859,3.20589 -3.25164,0.8258 -5.9626,1.61911 -6.02436,1.76292 -0.0618,0.14381 -0.5495,0.17789 -1.08388,0.0757 -0.58704,-0.11222 -0.97159,-0.002 -0.97159,0.27761 0,0.25485 -0.15858,0.36534 -0.3524,0.24556 -0.38925,-0.24057 -7.74213,1.34679 -12.06295,2.60418 -3.18477,0.9268 -13.11451,1.40364 -14.74789,0.70821 z"
     id="path4602"
     inkscape:connector-curvature="0" />
  <path
     style="fill:#ff9800;fill-opacity:0;stroke:none;stroke-width:0.39413795"
     d="m 196.13249,141.48556 c -1.42822,-0.16699 -6.30568,-1.20145 -10.8388,-2.2988 -4.53312,-1.09736 -10.2817,-2.44615 -12.77462,-2.9973 -7.05216,-1.55915 -11.36806,-2.85132 -20.10104,-6.01821 l -8.07983,-2.93004 -5.91207,0.17491 c -5.51917,0.16328 -6.174,0.26698 -9.85345,1.56039 -5.28683,1.85843 -6.39263,2.39765 -11.30905,5.51461 -2.31802,1.46959 -4.31391,2.67199 -4.43531,2.67199 -0.1214,0 -0.17582,-27.2493 -0.12094,-60.554003 l 0.0998,-60.554 6.89741,-5.24335 6.89741,-5.2433497 6.50328,-1.66443 c 6.48734,-1.66035 6.52066,-1.66438 13.59776,-1.64593 5.86181,0.0153 8.12171,0.19971 13.00655,1.06143 8.45614,1.49172 13.32008,2.72751 17.08139,4.33991 l 3.28657,1.40889 h 10.51902 10.51902 l 4.7189,-2.97174 4.7189,-2.97173 0.24156,14.3031997 c 0.13286,7.86676 0.26588,37.54156 0.2956,65.94401 l 0.054,51.640803 -1.19398,1.44851 c -0.6567,0.79669 -2.53386,2.34467 -4.17147,3.43998 -3.26595,2.18439 -3.7848,2.2696 -9.64664,1.58425 z"
     id="path4604"
     inkscape:connector-curvature="0" />
  <path
     style="fill:#ff9800;fill-opacity:0;stroke:none;stroke-width:0.39413795"
     d="m 196.13249,141.48556 c -1.42822,-0.16699 -6.30568,-1.20145 -10.8388,-2.2988 -4.53312,-1.09736 -10.2817,-2.44615 -12.77462,-2.9973 -7.05216,-1.55915 -11.36806,-2.85132 -20.10104,-6.01821 l -8.07983,-2.93004 -5.91207,0.17491 c -5.51917,0.16328 -6.174,0.26698 -9.85345,1.56039 -5.28683,1.85843 -6.39263,2.39765 -11.30905,5.51461 -2.31802,1.46959 -4.31391,2.67199 -4.43531,2.67199 -0.1214,0 -0.17582,-27.2493 -0.12094,-60.554003 l 0.0998,-60.554 6.89741,-5.24335 6.89741,-5.2433497 6.50328,-1.66443 c 6.48734,-1.66035 6.52066,-1.66438 13.59776,-1.64593 5.86181,0.0153 8.12171,0.19971 13.00655,1.06143 8.45614,1.49172 13.32008,2.72751 17.08139,4.33991 l 3.28657,1.40889 h 10.51902 10.51902 l 4.7189,-2.97174 4.7189,-2.97173 0.24156,14.3031997 c 0.13286,7.86676 0.26588,37.54156 0.2956,65.94401 l 0.054,51.640803 -1.19398,1.44851 c -0.6567,0.79669 -2.53386,2.34467 -4.17147,3.43998 -3.26595,2.18439 -3.7848,2.2696 -9.64664,1.58425 z"
     id="path4606"
     inkscape:connector-curvature="0" />
  <path
     style="fill:#ff9800;fill-opacity:0;stroke:none;stroke-width:0.39413795"
     d="m 196.13249,141.48556 c -1.42822,-0.16699 -6.30568,-1.20145 -10.8388,-2.2988 -4.53312,-1.09736 -10.2817,-2.44615 -12.77462,-2.9973 -7.05216,-1.55915 -11.36806,-2.85132 -20.10104,-6.01821 l -8.07983,-2.93004 -5.91207,0.17491 c -5.51917,0.16328 -6.174,0.26698 -9.85345,1.56039 -5.28683,1.85843 -6.39263,2.39765 -11.30905,5.51461 -2.31802,1.46959 -4.31391,2.67199 -4.43531,2.67199 -0.1214,0 -0.17582,-27.2493 -0.12094,-60.554003 l 0.0998,-60.554 6.89741,-5.24335 6.89741,-5.2433497 6.50328,-1.66443 c 6.48734,-1.66035 6.52066,-1.66438 13.59776,-1.64593 5.86181,0.0153 8.12171,0.19971 13.00655,1.06143 8.45614,1.49172 13.32008,2.72751 17.08139,4.33991 l 3.28657,1.40889 h 10.51902 10.51902 l 4.7189,-2.97174 4.7189,-2.97173 0.24156,14.3031997 c 0.13286,7.86676 0.26588,37.54156 0.2956,65.94401 l 0.054,51.640803 -1.19398,1.44851 c -0.6567,0.79669 -2.53386,2.34467 -4.17147,3.43998 -3.26595,2.18439 -3.7848,2.2696 -9.64664,1.58425 z"
     id="path4608"
     inkscape:connector-curvature="0" />
  <path
     style="fill:#ff9800;fill-opacity:0;stroke:none;stroke-width:0.39413795"
     d="m 4.1281261,82.410737 c -0.0567,-36.61707 -0.23605,-66.70951 -0.39863,-66.87207 -0.16258,-0.16256 -0.42863,-0.16264 -0.59121,-1.9e-4 -0.16258,0.16246 -0.39558,30.07405 -0.51779,66.47021 -0.1222,36.396153 -0.315,66.267643 -0.42844,66.381093 -0.41544,0.41543 -0.72885,-35.43971 -0.72885,-83.381173 v -49.16516 l 4.63112,-5.8803997 4.6311209,-5.88039 0.26561,65.9703497 0.2656,65.970363 1.3773,1.68081 c 0.75752,0.92445 2.7347,2.61918 4.39374,3.76607 l 3.01644,2.08527 5.58824,-0.18308 c 4.86107,-0.15924 6.46013,-0.39809 12.28859,-1.83552 3.68519,-0.90886 9.09473,-2.18305 12.0212,-2.83154 8.16472,-1.80925 13.09288,-3.25989 22.80707,-6.71341 l 8.92104,-3.17155 3.78563,0.22819 c 3.82586,0.23063 9.49224,1.64578 13.5767,3.39074 1.072723,0.45829 4.390543,2.34783 7.372923,4.19897 2.98237,1.85114 5.64953,3.27859 5.92703,3.17211 0.27749,-0.10649 2.96889,-1.72197 5.9809,-3.58997 4.64383,-2.88003 6.29848,-3.66504 10.88417,-5.16375 4.29583,-1.40398 6.21281,-1.82015 9.32282,-2.02396 l 3.91504,-0.25657 8.31996,3.00722 c 9.8912,3.57513 14.24804,4.86553 23.38954,6.92747 3.76642,0.84954 9.88135,2.26773 13.58873,3.15154 5.97121,1.42347 7.2894,1.60691 11.54747,1.60691 h 4.80678 l 2.22703,-1.42461 c 1.22486,-0.78354 3.16681,-2.38721 4.31544,-3.5637 l 2.08841,-2.13909 0.0997,-66.392103 0.0997,-66.3921097 4.82819,6.10467 4.82819,6.1046697 v 48.61212 c 0,47.780743 -0.31941,84.420053 -0.73235,84.007123 -0.11531,-0.11531 -0.30808,-29.98678 -0.42839,-66.381043 -0.12031,-36.39427 -0.35177,-66.30431 -0.51435,-66.46677 -0.16258,-0.16245 -0.42863,-0.16237 -0.59121,1.9e-4 -0.16258,0.16256 -0.34196,30.255 -0.39863,66.87207 l -0.10303,66.576513 -49.36129,-10e-6 -49.36128,-1e-5 -1.07979,-1.35329 c -1.18371,-1.48354 -4.93483,-4.48562 -6.80771,-5.44833 -1.06798,-0.54896 -1.30538,-0.54955 -2.36483,-0.006 -1.7115,0.8784 -6.40163,4.71661 -7.13941,5.8426 l -0.63219,0.96483 H 53.645687 4.2312061 Z m 2.60459,63.324873 c 0.34943,-1.30389 0.24573,-132.788403 -0.10543,-133.685143 -0.24679,-0.63018 -0.36139,-0.6643 -0.66204,-0.19707 -0.38978,0.60575 -0.79662,133.191483 -0.41178,134.194373 0.32666,0.85125 0.90876,0.69717 1.17925,-0.31216 z M 218.43614,78.844147 c 0,-36.82292 -0.13302,-67.08389 -0.29561,-67.24659 -0.16258,-0.16271 -0.42862,-0.16283 -0.5912,-2.6e-4 -0.35143,0.3514 -0.62894,131.861573 -0.28233,133.795513 0.18348,1.02377 0.3465,1.22459 0.70396,0.8672 0.35383,-0.35376 0.46518,-16.49086 0.46518,-67.415863 z M 9.7070161,75.480517 c 0.0123,-36.20157 -0.0885,-66.2350897 -0.22405,-66.7411597 -0.18401,-0.68725 -0.33076,-0.787 -0.57979,-0.39414 -0.38702,0.61054 -0.46266,132.0838927 -0.0768,133.5264427 0.23886,0.89303 0.28007,0.90759 0.55812,0.19707 0.16512,-0.42195 0.31026,-30.38664 0.32254,-66.588213 z m 205.7400039,0 c 0.0123,-36.20157 -0.0937,-66.2549397 -0.23559,-66.7852697 -0.23886,-0.89304 -0.28007,-0.90759 -0.55812,-0.19707 -0.36546,0.93388 -0.45092,132.0127127 -0.087,133.3734827 0.23886,0.89303 0.28007,0.90759 0.55812,0.19707 0.16512,-0.42195 0.31026,-30.38664 0.32254,-66.588213 z"
     id="path4610"
     inkscape:connector-curvature="0" />
  <path
     style="fill:#ff9800;fill-opacity:1;stroke:none;stroke-width:0.39413795"
     d="m 1.4695161,82.279397 0.006,-66.70785 4.82187,-6.0924897 4.8218809,-6.0925 0.0997,66.1642397 0.0997,66.164253 1.51832,2.00498 c 0.94954,1.25388 2.62925,2.70631 4.48382,3.87713 l 2.9655,1.87216 h 4.61266 c 4.22578,0 5.26282,-0.16399 12.36442,-1.95518 4.26347,-1.07535 11.21033,-2.6807 15.43746,-3.56744 6.29041,-1.31956 9.56534,-2.28834 18.03946,-5.33637 l 10.35376,-3.72412 h 3.84621 c 3.47997,0 4.38935,0.17246 9.5502,1.81112 5.19619,1.64988 6.222143,2.14112 11.524303,5.51793 3.20118,2.03875 5.89639,3.70682 5.98938,3.70682 0.093,0 2.7947,-1.66194 6.00382,-3.69319 5.31695,-3.36543 6.34672,-3.85512 11.6037,-5.51793 5.224,-1.65238 6.13289,-1.82475 9.62194,-1.82475 h 3.85301 l 10.28202,3.71896 c 8.78789,3.17853 11.54205,3.98462 18.95306,5.54715 4.76907,1.00551 11.6959,2.61318 15.39297,3.5726 6.1083,1.58515 7.14683,1.7444 11.37639,1.7444 h 4.65445 l 2.90904,-1.81312 c 1.69945,-1.05923 3.56542,-2.63752 4.48766,-3.7958 l 1.57863,-1.98268 V 69.480357 3.0829873 l 4.92411,6.24428 4.92411,6.2442797 0.003,66.70785 c 0.002,59.034273 -0.0655,66.707853 -0.58874,66.707853 -0.52319,0 -0.59121,-7.68569 -0.59121,-66.806383 0,-66.54363 -0.003,-66.80639 -0.78827,-66.80639 -0.78518,0 -0.78828,0.26276 -0.78828,66.80639 V 148.98725 H 170.3638 120.91197 l -1.29343,-1.73138 c -1.21279,-1.62341 -7.00073,-5.68221 -7.8005,-5.47009 -1.2052,0.31965 -6.10681,3.9609 -7.31239,5.43216 l -1.44982,1.76931 H 53.639007 4.2221661 V 82.180867 c 0,-66.54363 -0.003,-66.80639 -0.78827,-66.80639 -0.78518,0 -0.78828,0.26276 -0.78828,66.80639 0,59.120693 -0.068,66.806383 -0.59121,66.806383 -0.52321,0 -0.59048,-7.67194 -0.58489,-66.707853 z m 5.51162,-3.28053 c 0,-64.19124 -0.035,-67.61682 -0.68974,-67.49074 -0.6532,0.12579 -0.69511,3.68264 -0.79092,67.13089 -0.0556,36.848933 -0.0169,67.219763 0.0862,67.490733 0.10303,0.27097 0.45894,0.49267 0.79091,0.49267 0.53967,0 0.60358,-7.16053 0.60358,-67.623553 z m 211.5546639,-0.075 c 0.0994,-67.29324 0.0974,-67.49073 -0.68974,-67.49073 -0.78671,0 -0.78941,0.2306 -0.78941,67.62355 0,64.191243 0.035,67.616823 0.68975,67.490733 0.65322,-0.12579 0.69501,-3.70541 0.7894,-67.623553 z M 9.7400961,75.283477 c 0,-59.64621 -0.068,-67.3975897 -0.5912,-67.3975897 -0.52322,0 -0.59121,7.7513797 -0.59121,67.3975897 0,59.646213 0.068,67.397593 0.59121,67.397593 0.52321,0 0.5912,-7.75138 0.5912,-67.397593 z m 205.7400039,0 c 0,-59.64621 -0.068,-67.3975897 -0.5912,-67.3975897 -0.52322,0 -0.59121,7.7513797 -0.59121,67.3975897 0,59.646213 0.068,67.397593 0.59121,67.397593 0.52321,0 0.5912,-7.75138 0.5912,-67.397593 z"
     id="path4614"
     inkscape:connector-curvature="0" />
  <path
     style="fill:#ececec;fill-opacity:1;stroke:none;stroke-width:0.39413795"
     d="m 18.149177,139.98333 c -1.60874,-1.0502 -3.493798,-2.62764 -4.189019,-3.50542 l -1.264037,-1.59598 V 68.631676 2.381422 l 5.275053,3.3434327 5.275053,3.3434324 h 10.236389 10.23639 L 47.815927,7.2688625 C 51.427143,5.6827655 53.042506,5.2622289 61.44155,3.721621 70.244211,2.1069793 71.468609,1.9738039 77.510775,1.9738039 c 6.365001,0 6.717203,0.044218 13.124396,1.6477094 l 6.583874,1.6477094 7.005775,5.2997333 7.00579,5.299734 v 60.647215 c 0,33.355975 -0.0987,60.647215 -0.21925,60.647215 -0.12058,0 -2.40843,-1.40689 -5.0841,-3.12643 -4.29463,-2.75997 -5.53168,-3.33744 -10.553924,-4.92672 -5.457159,-1.72691 -5.884397,-1.8003 -10.480302,-1.8003 h -4.791223 l -9.750201,3.54681 c -8.195878,2.98139 -11.102472,3.83317 -18.232932,5.34314 -4.6655,0.98798 -11.918967,2.67312 -16.118814,3.74474 -6.443709,1.64417 -8.205225,1.94842 -11.280896,1.94842 h -3.64481 z"
     id="path948"
     inkscape:connector-curvature="0" />
  <g
     aria-label="Tome
Comb"
     transform="matrix(0.94943156,0,0,1.0532618,4.0503022e-6,-1.1824138)"
     style="font-style:normal;font-variant:normal;font-weight:normal;font-stretch:normal;font-size:39.88450241px;line-height:1.25;font-family:Algerian;-inkscape-font-specification:Algerian;letter-spacing:0px;word-spacing:0px;fill:#00b0ff;fill-opacity:1;stroke:none;stroke-width:0.99711257"
     id="text4624">
    <path
       d="m 25.190114,29.947401 -5.583831,-0.07977 -0.757805,-6.221983 28.198343,-0.518498 -0.518498,3.19076 -16.552069,1.874572 1.59538,26.563078 h -7.258979 z"
       style="font-style:normal;font-variant:normal;font-weight:normal;font-stretch:normal;font-family:'AR CHRISTY';-inkscape-font-specification:'AR CHRISTY';fill:#00b0ff;fill-opacity:1;stroke-width:0.99711257"
       id="path919"
       inkscape:connector-curvature="0" />
    <path
       d="m 59.137434,46.898314 q -4.626603,0 -7.737594,-2.871684 -3.110991,-2.871684 -3.110991,-7.458402 0,-3.789028 3.270529,-6.02256 2.871684,-1.95434 6.780365,-1.95434 4.307527,0 6.860135,2.791915 2.552608,2.791915 2.552608,7.17921 0,3.828912 -2.432955,6.102329 -2.39307,2.233532 -6.182097,2.233532 z M 56.146096,30.585553 q -1.715034,0 -2.672262,1.356073 -0.917343,1.356073 -0.917343,3.150875 0,1.555496 0.837574,3.948566 0.877459,2.353186 1.954341,3.110991 l 1.874571,1.036997 q 0.239307,0.119654 1.076882,0.598268 0.717921,0.358961 1.156651,0.358961 1.316188,0 2.712146,-1.156651 1.395957,-1.156651 1.395957,-2.432955 l -0.03988,-0.438729 Q 63.205657,36.528344 61.490623,33.856082 59.416629,30.585553 56.1461,30.585553 Z"
       style="font-style:normal;font-variant:normal;font-weight:normal;font-stretch:normal;font-family:'AR CHRISTY';-inkscape-font-specification:'AR CHRISTY';fill:#00b0ff;fill-opacity:1;stroke-width:0.99711257"
       id="path921"
       inkscape:connector-curvature="0" />
    <path
       d="m 69.771639,26.995947 9.691934,0.638153 3.350299,11.566505 q 1.15665,0 2.39307,-5.145101 1.076881,-4.506948 1.076881,-6.580942 l 8.495399,0.119653 q 0.319076,0.997113 0.43873,2.712146 0.119653,1.675149 0.119653,3.908681 0,1.994226 -0.119653,5.504062 -0.119654,3.509836 -0.119654,4.506949 0,6.38152 0.398845,9.811587 0.398845,3.430067 1.23642,6.261867 l -7.418518,-0.398845 q 1.076882,-7.219095 1.316189,-9.771703 0.279192,-2.552608 0.279192,-5.105216 0,-5.145101 -0.678037,-10.489625 l -3.908681,13.321424 -6.860135,-0.07977 -5.504061,-15.993685 v 1.515611 q 0,2.472839 0.239307,5.304639 0.239307,2.831799 0.478614,5.902906 0.279192,3.071107 0.279192,5.025447 0,2.911569 -0.358961,5.863022 h -5.543946 q 0.319076,-3.98845 0.478614,-9.293089 0.199423,-5.344523 0.199423,-9.811587 0.03988,-4.506949 0.03988,-9.29309 z"
       style="font-style:normal;font-variant:normal;font-weight:normal;font-stretch:normal;font-family:'AR CHRISTY';-inkscape-font-specification:'AR CHRISTY';fill:#00b0ff;fill-opacity:1;stroke-width:0.99711257"
       id="path923"
       inkscape:connector-curvature="0" />
    <path
       d="m 98.11581,38.482684 q 0,-4.626602 1.91446,-6.82025 1.91445,-2.233532 6.38152,-2.233532 3.43006,0 5.30464,2.951453 1.55549,2.472839 1.55549,6.102329 h -9.81159 q 0.0399,1.59538 0.0798,3.19076 0.19942,4.028335 2.3133,4.028335 1.15665,0 2.11388,-0.638152 0.99711,-0.638152 0.99711,-1.715034 0,-0.678036 -0.19942,-1.555495 l 4.78614,-0.119654 q -0.99711,3.350299 -2.43295,4.626603 -1.67515,1.515611 -5.02545,1.515611 -3.66937,0 -5.90291,-2.871684 -2.07399,-2.632378 -2.07399,-6.46129 z m 3.31041,-2.552608 6.02256,-0.159538 v -0.518499 q 0,-1.715033 -0.7578,-2.592492 -0.75781,-0.877459 -2.43296,-0.877459 -1.55549,0 -2.23353,0.917343 -0.63815,0.917344 -0.63815,2.552608 z"
       style="font-style:normal;font-variant:normal;font-weight:normal;font-stretch:normal;font-family:'AR CHRISTY';-inkscape-font-specification:'AR CHRISTY';fill:#00b0ff;fill-opacity:1;stroke-width:0.99711257"
       id="path925"
       inkscape:connector-curvature="0" />
    <path
       d="m 18.808593,91.664103 q 0,-6.860135 2.193648,-11.048007 2.871684,-5.464177 9.093667,-5.464177 3.948565,0 6.341635,2.75203 2.393071,2.712147 2.393071,6.660712 l -4.467065,0.398845 0.03988,-1.076881 q 0,-4.06822 -1.316189,-5.6636 -1.116766,-1.356073 -3.310413,-1.356073 -3.868797,0 -5.22487,5.264755 -0.757806,2.951453 -0.757806,8.495399 0,6.182097 1.196535,9.532394 1.23642,3.31042 3.469952,3.31042 2.871684,0 4.506949,-2.43296 1.435842,-2.153762 1.435842,-5.065331 0,-0.558383 -0.03988,-0.837575 1.316189,0 2.672262,-0.199422 1.356073,-0.199423 1.874572,-0.279192 0,5.145101 -2.552609,8.09655 -2.712146,3.111 -7.777477,3.111 -4.546834,0 -7.378633,-5.02545 -2.393071,-4.227759 -2.393071,-9.173437 z"
       style="font-style:normal;font-variant:normal;font-weight:normal;font-stretch:normal;font-family:'AR CHRISTY';-inkscape-font-specification:'AR CHRISTY';fill:#00b0ff;fill-opacity:1;stroke-width:0.99711257"
       id="path927"
       inkscape:connector-curvature="0" />
    <path
       d="m 52.515983,97.407471 q -4.626602,0 -7.737593,-2.871684 -3.110992,-2.871684 -3.110992,-7.458402 0,-3.789028 3.27053,-6.02256 2.871684,-1.954341 6.780365,-1.954341 4.307526,0 6.860134,2.791916 2.552609,2.791915 2.552609,7.17921 0,3.828912 -2.432955,6.102329 -2.39307,2.233532 -6.182098,2.233532 z M 49.524645,81.09471 q -1.715033,0 -2.672261,1.356073 -0.917344,1.356073 -0.917344,3.150875 0,1.555496 0.837575,3.948566 0.877459,2.353186 1.95434,3.110991 l 1.874572,1.036997 q 0.239307,0.119654 1.076882,0.598268 0.717921,0.35896 1.15665,0.35896 1.316189,0 2.712146,-1.15665 1.395958,-1.156651 1.395958,-2.432955 l -0.03988,-0.438729 Q 56.584202,87.0375 54.869169,84.365239 52.795175,81.09471 49.524645,81.09471 Z"
       style="font-style:normal;font-variant:normal;font-weight:normal;font-stretch:normal;font-family:'AR CHRISTY';-inkscape-font-specification:'AR CHRISTY';fill:#00b0ff;fill-opacity:1;stroke-width:0.99711257"
       id="path929"
       inkscape:connector-curvature="0" />
    <path
       d="m 63.150187,77.505104 9.691934,0.638152 3.350298,11.566506 q 1.156651,0 2.39307,-5.145101 1.076882,-4.506949 1.076882,-6.580943 l 8.495399,0.119654 q 0.319076,0.997112 0.438729,2.712146 0.119654,1.675149 0.119654,3.908681 0,1.994225 -0.119654,5.504062 -0.119653,3.509836 -0.119653,4.506948 0,6.381521 0.398845,9.811591 0.398845,3.43006 1.23642,6.26186 l -7.418518,-0.39884 q 1.076882,-7.2191 1.316189,-9.7717 0.279191,-2.552612 0.279191,-5.105221 0,-5.1451 -0.678036,-10.489624 L 79.702255,98.364699 72.842121,98.28493 67.33806,82.291245 v 1.515611 q 0,2.472839 0.239307,5.304639 0.239307,2.831799 0.478614,5.902906 0.279191,3.071107 0.279191,5.025449 0,2.91157 -0.35896,5.86302 h -5.543946 q 0.319076,-3.98845 0.478614,-9.293089 0.199422,-5.344523 0.199422,-9.811588 0.03989,-4.506948 0.03989,-9.293089 z"
       style="font-style:normal;font-variant:normal;font-weight:normal;font-stretch:normal;font-family:'AR CHRISTY';-inkscape-font-specification:'AR CHRISTY';fill:#00b0ff;fill-opacity:1;stroke-width:0.99711257"
       id="path931"
       inkscape:connector-curvature="0" />
    <path
       d="m 97.71634,105.50403 q -3.071107,0 -6.261867,-0.87746 0,-2.55261 0.478614,-11.12778 0.239307,-4.267642 0.239307,-6.700597 0,-2.712146 -0.239307,-5.264754 -0.239307,-2.592493 -0.757806,-5.942791 l 6.261867,0.518499 -1.794802,14.956688 q 1.15665,-1.15665 2.034109,-1.635264 0.877459,-0.518499 1.555496,-0.518499 2.991339,0 4.706369,2.752031 1.47573,2.353185 1.47573,5.543946 0,4.068221 -1.75492,6.102331 -1.91446,2.19365 -5.94279,2.19365 z m -1.914456,-2.75204 q 1.874571,-0.27919 3.310413,-1.23642 1.834683,-1.19653 1.834683,-2.871679 0,-1.515611 -0.67803,-3.948566 -0.837577,-2.991338 -1.834689,-2.991338 -0.837575,0 -1.794803,0.717921 -0.159538,0.119654 -0.877459,0.79769 z"
       style="font-style:normal;font-variant:normal;font-weight:normal;font-stretch:normal;font-family:'AR CHRISTY';-inkscape-font-specification:'AR CHRISTY';fill:#00b0ff;fill-opacity:1;stroke-width:0.99711257"
       id="path933"
       inkscape:connector-curvature="0" />
  </g>
  <path
     style="fill:#ececec;fill-opacity:1;stroke:none;stroke-width:0.39413795"
     d="m 188.67871,140.09401 c -3.68519,-0.94991 -10.84657,-2.61782 -15.91418,-3.70647 -7.86308,-1.68919 -10.64283,-2.49968 -18.9615,-5.52861 l -9.74767,-3.54926 h -4.85092 c -4.66115,0 -5.07174,0.0699 -10.49493,1.78604 -4.96293,1.5705 -6.23636,2.16502 -10.55278,4.92672 -2.69983,1.72738 -5.00796,3.14069 -5.12918,3.14069 -0.12121,0 -0.22039,-27.27488 -0.22039,-60.61086 V 15.941401 l 6.20767,-4.747756 c 3.41422,-2.6112653 6.65108,-5.0278473 7.19302,-5.3701825 0.54194,-0.3423347 3.84454,-1.348554 7.33911,-2.2360428 6.18491,-1.5707323 6.52872,-1.6136158 12.93716,-1.6136158 6.10344,0 7.27807,0.12798 16.1121,1.7554685 8.27936,1.525303 10.07131,1.9893789 13.66715,3.5394995 l 4.13845,1.7840307 10.21342,0.00774 10.21343,0.00774 5.25649,-3.3409486 5.25649,-3.3409489 V 68.608911 134.83143 l -1.27676,1.6937 c -0.70222,0.93154 -2.57763,2.52034 -4.16757,3.53067 l -2.89082,1.83698 -3.81372,-0.0358 c -3.14652,-0.0296 -4.98592,-0.33798 -10.51407,-1.76294 z"
     id="path950"
     inkscape:connector-curvature="0" />
  <use
     id="use87"
     style="fill:#00b0ff;fill-opacity:1;stroke:#000000;stroke-width:0.5"
     xlink:href="#comb"
     transform="matrix(1.7028462,1.4348231,-1.8589645,2.2062165,547.85764,-500.82302)"
     height="1052.3622"
     width="744.09448"
     y="220"
     x="9.3280001" />
</svg>
